# xmcd
#
# Track frame offsets:
#  150
#  12525
#  25050
#  42412
#  63487
#  71512
#  83475
#  100837
#  112425
#  124800
#  139312
#  158587
#  178837
#  193575
#  202687
#  218850
#  232612
#
# Disc length: 3282 seconds
#
# Revision: 0
# Processed by: cddbd v1.5.1PL2 Copyright (c) Steve Scherf et al.
# Submitted via: Collectorz.com_Music_Collector 6.10
#
DISCID=e90cd011
DTITLE=Michael Cleveland - Let 'Er Go, Boys
DYEAR=2006
DGENRE=Bluegrass
TTITLE0=The Old Brown County Barn
TTITLE1=Night
TTITLE2=Bright and Early
TTITLE3=The Old Man and His Fiddle
TTITLE4=Durham's Reel
TTITLE5=Montana Cowboy
TTITLE6=Dark as the Night, Blue as the Day
TTITLE7=Sugar in the Gourd
TTITLE8=Stone's Rag
TTITLE9=Hello City Limits
TTITLE10=Hopelessly in Love
TTITLE11=The Old Mountaineer
TTITLE12=Flower Blooming in the Wildwood
TTITLE13=Old Joe
TTITLE14=Sugar Tree Stomp
TTITLE15=Miller's Cave
TTITLE16=Cacklin' Hen
EXTD=
EXTT0=
EXTT1=
EXTT2=
EXTT3=
EXTT4=
EXTT5=
EXTT6=
EXTT7=
EXTT8=
EXTT9=
EXTT10=
EXTT11=
EXTT12=
EXTT13=
EXTT14=
EXTT15=
EXTT16=
PLAYORDER=
